<?xml version="1.0" encoding="utf-8"?>
<!-- Generator: Adobe Illustrator 22.0.1, SVG Export Plug-In . SVG Version: 6.00 Build 0)  -->
<svg version="1.1" id="Calque_1" xmlns="http://www.w3.org/2000/svg" xmlns:xlink="http://www.w3.org/1999/xlink" x="0px" y="0px"
	 viewBox="0 0 149.5 45" style="enable-background:new 0 0 149.5 45;" xml:space="preserve">
<style type="text/css">
	.st0{fill:#424143;}
	.st1{fill:#EDECED;}
	.st2{fill:url(#SVGID_1_);}
	.st3{fill:#616264;}
	.st4{fill:#FFFFFF;}
</style>
<g>
	<rect x="148.3" class="st0" width="1.3" height="44.8"/>
	<rect x="30.6" class="st1" width="117.7" height="44.8"/>
	<linearGradient id="SVGID_1_" gradientUnits="userSpaceOnUse" x1="15.6424" y1="0" x2="15.6424" y2="44.791">
		<stop  offset="0" style="stop-color:#404041"/>
		<stop  offset="1" style="stop-color:#58595B"/>
	</linearGradient>
	<rect x="0.7" class="st2" width="29.9" height="44.8"/>
	<g>
		<path class="st0" d="M42.8,24.7c0.4,0.8,0.5,1.5,0.5,2.3c0,1.6-0.7,3-2,4.2s-2.9,1.8-4.7,1.8c-1.1,0-1.9-0.3-2.7-0.8
			c-0.7-0.5-1.1-1.2-1.1-2c0-0.8,0.5-1.6,1.5-2.5c1-0.8,2.7-1.8,5.1-3l-1.3-2c-1.5-2.4-2.3-4.4-2.3-5.7c0-2,1.2-3.6,3.5-4.8
			c1.4,0.5,2.1,1.2,2.1,2c0,1.2-0.9,2.3-2.7,3.4l1.8,3.3l1.4,2.5c2-1.2,3.5-2.2,4.5-3.1c1-0.8,2.3-2.2,3.8-3.9l1.3,0.8
			C49.3,20.1,46.4,22.6,42.8,24.7z M40.1,26.1c-3.1,1.6-4.6,2.9-4.6,3.8c0,0.9,0.6,1.3,1.9,1.3c0.9,0,1.7-0.3,2.2-0.9
			s0.9-1.4,0.9-2.4C40.5,27.3,40.4,26.7,40.1,26.1z"/>
		<path class="st0" d="M59.1,24c0.3,0.5,0.4,1,0.4,1.3c0,1-0.9,2.1-2.6,3.4c-1.7,1.2-3.3,1.9-4.7,1.9c-1.3,0-2.3-0.6-3.1-1.7
			c-0.8-1.1-1.2-2.6-1.2-4.3c0-2,0.5-4.7,1.5-8.4l0.7-2.6h-2.6c-1.1,0-2,0.2-2.6,0.5c0.6-1.1,1.1-1.8,1.5-2.1c0.4-0.3,1.1-0.4,2-0.4
			h2.4l0.3-1.1c0.5-1.6,1.1-2.7,1.7-3.3c0.7-0.6,1.7-0.9,3-0.9c0.2,0,0.4,0,0.8,0c-0.8,1-1.7,2.8-2.5,5.3h8.3c1.4,0,2.6-0.2,3.3-0.6
			c-0.3,1.1-0.6,1.8-1,2.1c-0.4,0.3-1.2,0.5-2.4,0.5h-8.8c-0.1,0.3-0.2,0.6-0.2,0.8c-1.3,4.3-1.9,7.5-1.9,9.7c0,2.4,0.9,3.6,2.6,3.6
			c0.9,0,1.9-0.4,2.9-1.1C57.9,25.8,58.6,24.9,59.1,24z"/>
		<path class="st0" d="M64.4,23.7c0,3,1.3,4.6,3.9,4.6c2.2,0,4.7-1.1,7.4-3.2c2.7-2.1,5.1-4.9,7.3-8.4l1.3,0.7c-2,3.8-4.7,7-8,9.5
			c-3.3,2.5-6.4,3.7-9.3,3.7c-1.9,0-3.4-0.6-4.4-1.8c-1.1-1.2-1.6-2.9-1.6-5c0-3,1-5.6,3-7.8c2-2.1,4.4-3.2,7.1-3.2
			c1.3,0,2.4,0.3,3.2,1c0.8,0.7,1.2,1.6,1.2,2.7c0,1.9-1.1,3.5-3.4,5C69.9,22.9,67.4,23.7,64.4,23.7z M64.6,22.2
			c2.2-0.1,4-0.7,5.6-1.9c1.6-1.1,2.3-2.4,2.3-3.9c0-1.3-0.6-2-1.8-2c-1.4,0-2.7,0.8-3.9,2.3C65.6,18.2,64.9,20,64.6,22.2z"/>
		<path class="st0" d="M84.5,30.6c0.2-0.9,0.3-1.7,0.3-2.4c0-2.6-0.5-5.4-1.6-8.5c-1.1-3.1-2.4-5.5-3.8-7.1c0.9-0.5,1.7-0.7,2.4-0.7
			c1.1,0,2.3,1.5,3.5,4.5c1.2,3,2,6.6,2.5,10.9c1.8-2.3,3.3-4.7,4.5-7.2c1.2-2.5,1.9-4.6,2-6.4c1.6,0.6,2.3,1.3,2.3,2.1
			c0,0.7-0.7,2.3-2.2,4.8c-1.5,2.5-3.1,4.9-4.9,7.1C88.7,29,88,29.7,87.4,30S85.9,30.5,84.5,30.6z"/>
		<path class="st0" d="M111.5,20.6c-1.3,2.8-3,5.1-4.9,7c-2,1.9-3.7,2.9-5.1,2.9c-1.1,0-2-0.5-2.7-1.5c-0.7-1-1-2.3-1-3.9
			c0-3.3,1-6.1,3-8.6c2-2.5,4.3-3.7,6.9-3.7c1.6,0,3.3,0.5,5.1,1.5c0.3-1,1.4-1.5,3.3-1.5c0.1,0,0.3,0,0.6,0c-0.6,0.9-1,2.1-1.4,3.7
			l-0.3,1.3c-0.3,1.5-0.5,3.2-0.5,5.2c0,2.3,0.5,3.4,1.6,3.4c1.1,0,2.7-0.9,4.6-2.8s3.9-4.3,5.8-7.2l1.2,0.8
			c-1.9,3.4-4.1,6.3-6.6,8.6s-4.6,3.4-6.4,3.4c-2.3,0-3.4-1.9-3.4-5.6C111.4,23,111.4,21.9,111.5,20.6z M112.2,16.9
			c-2.2-1.4-4-2.1-5.5-2.1c-1.6,0-2.9,1-4.1,2.9c-1.1,1.9-1.7,4.2-1.7,6.8c0,2.1,0.7,3.2,2.1,3.2c1.5,0,4.3-3.3,8.6-9.8
			C111.6,17.7,111.9,17.4,112.2,16.9z"/>
		<path class="st0" d="M140.8,17.4c-2.2,4.1-4.3,7.3-6.5,9.6c-2.2,2.3-4.1,3.5-5.8,3.5c-1.2,0-2.2-0.5-3-1.4
			c-0.8-0.9-1.1-2.2-1.1-3.7c0-0.9,0.2-2.1,0.5-3.6L128,6.2c-0.4,0.1-0.8,0.1-1.1,0.1c-2.4,0-3.6-1-3.6-3V2.9
			c1.3,0.7,2.7,1.1,4.2,1.1c1.6,0,2.9-0.4,4.1-1.2L128,21.6c-0.3,1.7-0.5,2.9-0.5,3.5c0,1.8,0.6,2.6,1.9,2.6c1.3,0,2.5-0.7,3.8-2.1
			c1.3-1.4,3.3-4.4,6.2-9L140.8,17.4z"/>
	</g>
	<g>
		<path class="st3" d="M71,37.8c0,0.9-0.2,1.6-0.6,2.1c-0.4,0.5-0.9,0.8-1.6,0.8c-0.7,0-1.2-0.2-1.6-0.7v2.8h-1v-7.9h0.9l0,0.6
			c0.4-0.5,1-0.7,1.7-0.7c0.7,0,1.2,0.3,1.6,0.8S71,36.8,71,37.8L71,37.8z M70,37.7c0-0.6-0.1-1.2-0.4-1.5c-0.3-0.4-0.7-0.6-1.1-0.6
			c-0.6,0-1,0.3-1.3,0.8v2.7c0.3,0.5,0.7,0.8,1.3,0.8c0.5,0,0.8-0.2,1.1-0.6C69.9,39,70,38.4,70,37.7z"/>
		<path class="st3" d="M75.8,35.8c-0.1,0-0.3,0-0.5,0c-0.6,0-1.1,0.3-1.3,0.8v4.1h-1v-5.7h1l0,0.7c0.3-0.5,0.8-0.8,1.4-0.8
			c0.2,0,0.3,0,0.4,0.1V35.8z"/>
		<path class="st3" d="M77.1,37.7c0-0.6,0.1-1.1,0.3-1.5c0.2-0.4,0.5-0.8,0.9-1c0.4-0.2,0.8-0.4,1.3-0.4c0.8,0,1.4,0.3,1.9,0.8
			c0.5,0.5,0.7,1.3,0.7,2.2v0.1c0,0.6-0.1,1.1-0.3,1.5c-0.2,0.4-0.5,0.8-0.9,1c-0.4,0.2-0.9,0.4-1.4,0.4c-0.8,0-1.4-0.3-1.9-0.8
			C77.3,39.4,77.1,38.7,77.1,37.7L77.1,37.7z M78.1,37.8c0,0.6,0.1,1.1,0.4,1.5c0.3,0.4,0.7,0.6,1.2,0.6c0.5,0,0.9-0.2,1.2-0.6
			c0.3-0.4,0.4-0.9,0.4-1.6c0-0.6-0.1-1.1-0.4-1.5c-0.3-0.4-0.7-0.6-1.2-0.6c-0.5,0-0.9,0.2-1.2,0.6C78.2,36.5,78.1,37.1,78.1,37.8z
			"/>
		<path class="st3" d="M84.8,40.6v-5h-0.9v-0.8h0.9v-0.6c0-0.6,0.2-1.1,0.5-1.4s0.8-0.5,1.4-0.5c0.2,0,0.5,0,0.7,0.1l-0.1,0.8
			c-0.2,0-0.3,0-0.5,0c-0.3,0-0.6,0.1-0.7,0.3c-0.2,0.2-0.3,0.5-0.3,0.8v0.6H87v0.8h-1.2v5H84.8z"/>
		<path class="st3" d="M91.2,40.7c-0.8,0-1.4-0.3-1.9-0.8c-0.5-0.5-0.7-1.2-0.7-2v-0.2c0-0.6,0.1-1.1,0.3-1.5s0.5-0.8,0.9-1
			s0.8-0.4,1.3-0.4c0.7,0,1.3,0.2,1.7,0.7c0.4,0.5,0.6,1.2,0.6,2.1V38h-3.9c0,0.6,0.2,1,0.5,1.4c0.3,0.3,0.7,0.5,1.2,0.5
			c0.3,0,0.6-0.1,0.9-0.2c0.2-0.1,0.4-0.3,0.6-0.6l0.6,0.5C92.9,40.4,92.1,40.7,91.2,40.7z M91.1,35.6c-0.4,0-0.7,0.1-1,0.4
			c-0.3,0.3-0.4,0.7-0.5,1.2h2.9v-0.1c0-0.5-0.2-0.9-0.4-1.2C91.8,35.7,91.5,35.6,91.1,35.6z"/>
		<path class="st3" d="M98.6,39.1c0-0.3-0.1-0.5-0.3-0.6c-0.2-0.1-0.5-0.3-1-0.4c-0.5-0.1-0.9-0.2-1.2-0.4c-0.3-0.1-0.5-0.3-0.6-0.5
			c-0.1-0.2-0.2-0.4-0.2-0.7c0-0.5,0.2-0.9,0.6-1.2c0.4-0.3,0.9-0.5,1.5-0.5c0.6,0,1.2,0.2,1.6,0.5c0.4,0.3,0.6,0.8,0.6,1.3h-1
			c0-0.3-0.1-0.5-0.3-0.7s-0.5-0.3-0.9-0.3c-0.4,0-0.6,0.1-0.8,0.2c-0.2,0.2-0.3,0.4-0.3,0.6c0,0.2,0.1,0.4,0.3,0.5
			c0.2,0.1,0.5,0.2,1,0.3s0.9,0.2,1.2,0.4c0.3,0.2,0.5,0.3,0.7,0.5c0.1,0.2,0.2,0.5,0.2,0.8c0,0.5-0.2,0.9-0.6,1.2
			c-0.4,0.3-0.9,0.5-1.6,0.5c-0.5,0-0.9-0.1-1.2-0.2c-0.4-0.2-0.6-0.4-0.8-0.7s-0.3-0.6-0.3-0.9h1c0,0.3,0.1,0.6,0.4,0.8
			s0.6,0.3,1,0.3c0.4,0,0.7-0.1,0.9-0.2C98.5,39.5,98.6,39.3,98.6,39.1z"/>
		<path class="st3" d="M105,39.1c0-0.3-0.1-0.5-0.3-0.6c-0.2-0.1-0.5-0.3-1-0.4c-0.5-0.1-0.9-0.2-1.2-0.4c-0.3-0.1-0.5-0.3-0.6-0.5
			c-0.1-0.2-0.2-0.4-0.2-0.7c0-0.5,0.2-0.9,0.6-1.2c0.4-0.3,0.9-0.5,1.5-0.5c0.6,0,1.2,0.2,1.6,0.5c0.4,0.3,0.6,0.8,0.6,1.3h-1
			c0-0.3-0.1-0.5-0.3-0.7s-0.5-0.3-0.9-0.3c-0.4,0-0.6,0.1-0.8,0.2c-0.2,0.2-0.3,0.4-0.3,0.6c0,0.2,0.1,0.4,0.3,0.5
			c0.2,0.1,0.5,0.2,1,0.3s0.9,0.2,1.2,0.4c0.3,0.2,0.5,0.3,0.7,0.5c0.1,0.2,0.2,0.5,0.2,0.8c0,0.5-0.2,0.9-0.6,1.2
			c-0.4,0.3-0.9,0.5-1.6,0.5c-0.5,0-0.9-0.1-1.2-0.2c-0.4-0.2-0.6-0.4-0.8-0.7s-0.3-0.6-0.3-0.9h1c0,0.3,0.1,0.6,0.4,0.8
			s0.6,0.3,1,0.3c0.4,0,0.7-0.1,0.9-0.2C104.9,39.5,105,39.3,105,39.1z"/>
		<path class="st3" d="M108,33.4c0-0.2,0-0.3,0.1-0.4s0.2-0.2,0.4-0.2s0.3,0.1,0.4,0.2s0.1,0.2,0.1,0.4c0,0.2,0,0.3-0.1,0.4
			c-0.1,0.1-0.2,0.2-0.4,0.2s-0.3-0.1-0.4-0.2C108,33.7,108,33.5,108,33.4z M109.1,40.6h-1v-5.7h1V40.6z"/>
		<path class="st3" d="M111.1,37.7c0-0.6,0.1-1.1,0.3-1.5c0.2-0.4,0.5-0.8,0.9-1c0.4-0.2,0.8-0.4,1.3-0.4c0.8,0,1.4,0.3,1.9,0.8
			c0.5,0.5,0.7,1.3,0.7,2.2v0.1c0,0.6-0.1,1.1-0.3,1.5c-0.2,0.4-0.5,0.8-0.9,1c-0.4,0.2-0.9,0.4-1.4,0.4c-0.8,0-1.4-0.3-1.9-0.8
			C111.4,39.4,111.1,38.7,111.1,37.7L111.1,37.7z M112.1,37.8c0,0.6,0.1,1.1,0.4,1.5c0.3,0.4,0.7,0.6,1.2,0.6c0.5,0,0.9-0.2,1.2-0.6
			c0.3-0.4,0.4-0.9,0.4-1.6c0-0.6-0.1-1.1-0.4-1.5c-0.3-0.4-0.7-0.6-1.2-0.6c-0.5,0-0.9,0.2-1.2,0.6
			C112.3,36.5,112.1,37.1,112.1,37.8z"/>
		<path class="st3" d="M119.2,34.9l0,0.7c0.4-0.6,1-0.8,1.7-0.8c1.2,0,1.8,0.7,1.8,2v3.8h-1v-3.8c0-0.4-0.1-0.7-0.3-0.9
			c-0.2-0.2-0.5-0.3-0.9-0.3c-0.3,0-0.6,0.1-0.8,0.3c-0.2,0.2-0.4,0.4-0.6,0.7v4.1h-1v-5.7H119.2z"/>
		<path class="st3" d="M126,34.9l0,0.7c0.4-0.6,1-0.8,1.7-0.8c1.2,0,1.8,0.7,1.8,2v3.8h-1v-3.8c0-0.4-0.1-0.7-0.3-0.9
			c-0.2-0.2-0.5-0.3-0.9-0.3c-0.3,0-0.6,0.1-0.8,0.3c-0.2,0.2-0.4,0.4-0.6,0.7v4.1h-1v-5.7H126z"/>
		<path class="st3" d="M134.2,40.7c-0.8,0-1.4-0.3-1.9-0.8c-0.5-0.5-0.7-1.2-0.7-2v-0.2c0-0.6,0.1-1.1,0.3-1.5s0.5-0.8,0.9-1
			s0.8-0.4,1.3-0.4c0.7,0,1.3,0.2,1.7,0.7c0.4,0.5,0.6,1.2,0.6,2.1V38h-3.9c0,0.6,0.2,1,0.5,1.4c0.3,0.3,0.7,0.5,1.2,0.5
			c0.3,0,0.6-0.1,0.9-0.2c0.2-0.1,0.4-0.3,0.6-0.6l0.6,0.5C135.8,40.4,135.1,40.7,134.2,40.7z M134,35.6c-0.4,0-0.7,0.1-1,0.4
			c-0.3,0.3-0.4,0.7-0.5,1.2h2.9v-0.1c0-0.5-0.2-0.9-0.4-1.2C134.8,35.7,134.5,35.6,134,35.6z"/>
		<path class="st3" d="M139.4,40.6h-1v-8.1h1V40.6z"/>
	</g>
	<g>
		<path class="st4" d="M12.7,22.6l-0.9,4.6c-0.4,1.9-0.6,3.3-0.6,4.1c0,1.6,1.5,2.4,4.6,2.4c3.1,0,5.8-0.5,8.1-1.6
			c-0.5,1.8-1.4,2.9-2.7,3.3c-0.8,0.3-2.1,0.5-3.9,0.8c-1.9,0.3-3.3,0.4-4.3,0.4c-3.9,0-5.9-1.3-5.9-3.9c0-0.7,0.2-2,0.6-4l1.2-6.1
			H8.6c-1.2,0-2.4,0.3-3.5,0.8c0.7-1.3,1.2-2.1,1.6-2.5c0.4-0.4,1.1-0.5,2-0.5h0.6l1.8-8.9h-0.5c-2.2,0-4.3,0.7-6.2,2.1
			c0.6-1.9,1.4-3.2,2.5-3.7c0.8-0.4,3.3-0.6,7.5-0.6h5.4c3.4,0,6.1-0.3,8.2-1c-0.9,1.5-1.8,2.4-2.5,2.7c-0.7,0.3-2.3,0.5-4.8,0.5
			h-5.8l-1.8,8.9h3.7c2.6,0,4.7-0.3,6.2-1c-0.8,1.5-1.5,2.4-2.2,2.8s-2.1,0.5-4.5,0.5H12.7z"/>
	</g>
</g>
</svg>
