<?xml version="1.0" encoding="utf-8"?>
<!-- Generator: Adobe Illustrator 22.0.1, SVG Export Plug-In . SVG Version: 6.00 Build 0)  -->
<svg version="1.1" id="Calque_1" xmlns="http://www.w3.org/2000/svg" xmlns:xlink="http://www.w3.org/1999/xlink" x="0px" y="0px"
	 viewBox="0 0 149.5 45" style="enable-background:new 0 0 149.5 45;" xml:space="preserve">
<style type="text/css">
	.st0{fill:#729C52;}
	.st1{fill:#EDECED;}
	.st2{fill:url(#SVGID_1_);}
	.st3{fill:#616264;}
	.st4{fill:#FFFFFF;}
</style>
<g>
	<rect x="148.1" y="0" class="st0" width="1.3" height="45"/>
	<rect x="29.9" y="0" class="st1" width="118.3" height="45"/>
	<linearGradient id="SVGID_1_" gradientUnits="userSpaceOnUse" x1="14.9919" y1="-9.094947e-13" x2="14.9919" y2="45">
		<stop  offset="0" style="stop-color:#729C52"/>
		<stop  offset="1" style="stop-color:#85AC63"/>
	</linearGradient>
	<rect x="0.1" y="0" class="st2" width="29.7" height="45"/>
	<g>
		<path class="st0" d="M42.1,24.8c0.4,0.8,0.5,1.6,0.5,2.3c0,1.6-0.7,3-2,4.2S37.7,33,35.9,33c-1.1,0-2-0.3-2.7-0.8
			c-0.7-0.5-1.1-1.2-1.1-2c0-0.8,0.5-1.6,1.5-2.5c1-0.8,2.7-1.8,5.1-3l-1.3-2c-1.5-2.5-2.3-4.4-2.3-5.8c0-2,1.2-3.6,3.5-4.8
			c1.4,0.5,2.1,1.2,2.1,2.1c0,1.2-0.9,2.3-2.7,3.4l1.8,3.3l1.4,2.5c2-1.2,3.5-2.2,4.5-3.1s2.3-2.2,3.8-3.9l1.3,0.8
			C48.7,20.2,45.7,22.8,42.1,24.8z M39.4,26.2c-3.1,1.7-4.6,2.9-4.6,3.8c0,0.9,0.6,1.3,1.9,1.3c0.9,0,1.7-0.3,2.2-0.9
			c0.6-0.6,0.9-1.4,0.9-2.4C39.8,27.4,39.7,26.8,39.4,26.2z"/>
		<path class="st0" d="M58.5,24.1c0.3,0.5,0.4,1,0.4,1.4c0,1-0.9,2.2-2.6,3.4c-1.7,1.2-3.3,1.9-4.7,1.9c-1.3,0-2.3-0.6-3.1-1.7
			c-0.8-1.1-1.2-2.6-1.2-4.3c0-2,0.5-4.8,1.6-8.4l0.7-2.6h-2.7c-1.1,0-2,0.2-2.7,0.5c0.6-1.1,1.1-1.8,1.5-2.1c0.4-0.3,1.1-0.4,2-0.4
			h2.4l0.3-1.1c0.5-1.6,1.1-2.7,1.7-3.3c0.7-0.6,1.7-0.9,3-0.9c0.2,0,0.4,0,0.8,0c-0.8,1.1-1.7,2.8-2.5,5.3h8.3
			c1.5,0,2.6-0.2,3.3-0.6c-0.3,1.1-0.6,1.8-1,2.1s-1.2,0.5-2.4,0.5h-8.8c-0.1,0.3-0.2,0.6-0.2,0.8c-1.3,4.3-1.9,7.6-1.9,9.8
			c0,2.4,0.9,3.6,2.6,3.6c0.9,0,1.9-0.4,2.9-1.1C57.3,25.9,58,25.1,58.5,24.1z"/>
		<path class="st0" d="M63.9,23.8c0,3.1,1.3,4.6,3.9,4.6c2.3,0,4.7-1.1,7.4-3.2s5.2-5,7.3-8.5l1.3,0.7c-2.1,3.8-4.7,7-8,9.5
			c-3.3,2.5-6.4,3.8-9.3,3.8c-1.9,0-3.4-0.6-4.5-1.8c-1.1-1.2-1.6-2.9-1.6-5c0-3,1-5.6,3-7.8c2-2.2,4.4-3.2,7.2-3.2
			c1.4,0,2.4,0.3,3.2,1c0.8,0.7,1.2,1.6,1.2,2.7c0,1.9-1.1,3.5-3.4,5C69.4,23.1,66.8,23.8,63.9,23.8z M64,22.3
			c2.2-0.1,4.1-0.7,5.6-1.9s2.3-2.5,2.3-3.9c0-1.3-0.6-2-1.8-2c-1.4,0-2.7,0.8-3.9,2.3S64.3,20.1,64,22.3z"/>
		<path class="st0" d="M84,30.7c0.2-0.9,0.3-1.7,0.3-2.4c0-2.6-0.6-5.4-1.7-8.6c-1.1-3.1-2.4-5.5-3.9-7.1c0.9-0.5,1.7-0.7,2.5-0.7
			c1.2,0,2.3,1.5,3.5,4.5s2,6.7,2.5,11c1.8-2.3,3.3-4.7,4.5-7.2c1.2-2.5,1.9-4.6,2-6.4c1.6,0.6,2.4,1.3,2.4,2.1
			c0,0.7-0.8,2.3-2.3,4.8s-3.1,4.9-4.9,7.1c-0.9,1.1-1.6,1.8-2.2,2.1C86.3,30.4,85.4,30.6,84,30.7z"/>
		<path class="st0" d="M111.1,20.7c-1.3,2.8-3,5.1-5,7.1c-2,1.9-3.7,2.9-5.1,2.9c-1.1,0-2-0.5-2.7-1.5c-0.7-1-1-2.3-1-3.9
			c0-3.3,1-6.2,3-8.7c2-2.5,4.3-3.7,6.9-3.7c1.6,0,3.3,0.5,5.1,1.5c0.3-1,1.4-1.5,3.3-1.5c0.1,0,0.3,0,0.6,0
			c-0.6,0.9-1.1,2.2-1.4,3.7l-0.3,1.3c-0.3,1.5-0.5,3.2-0.5,5.2c0,2.3,0.5,3.4,1.6,3.4c1.1,0,2.7-0.9,4.6-2.8c2-1.9,3.9-4.3,5.8-7.2
			l1.2,0.8c-1.9,3.5-4.2,6.3-6.6,8.6c-2.5,2.3-4.6,3.5-6.4,3.5c-2.3,0-3.4-1.9-3.4-5.7C111,23.1,111.1,22,111.1,20.7z M111.9,17
			c-2.2-1.4-4-2.2-5.5-2.2c-1.6,0-3,1-4.1,2.9s-1.7,4.2-1.7,6.8c0,2.1,0.7,3.2,2.1,3.2c1.5,0,4.4-3.3,8.6-9.9
			C111.3,17.8,111.5,17.5,111.9,17z"/>
		<path class="st0" d="M140.5,17.5c-2.2,4.1-4.3,7.3-6.5,9.7s-4.1,3.5-5.8,3.5c-1.2,0-2.2-0.5-3-1.4c-0.8-0.9-1.1-2.2-1.1-3.7
			c0-0.9,0.2-2.1,0.5-3.6l3.1-15.7c-0.4,0.1-0.8,0.1-1.1,0.1c-2.4,0-3.6-1-3.6-3V2.9c1.3,0.7,2.7,1.1,4.3,1.1s3-0.4,4.1-1.2
			l-3.6,18.9c-0.3,1.7-0.5,2.9-0.5,3.5c0,1.8,0.6,2.7,1.9,2.7c1.3,0,2.5-0.7,3.8-2.1c1.3-1.4,3.4-4.4,6.3-9.1L140.5,17.5z"/>
	</g>
	<g>
		<path class="st3" d="M99.2,41.9c-0.8,0-1.4-0.3-1.9-0.8c-0.5-0.5-0.7-1.2-0.7-2.1v-0.2c0-0.6,0.1-1.1,0.3-1.5s0.5-0.8,0.9-1.1
			s0.8-0.4,1.3-0.4c0.7,0,1.3,0.2,1.7,0.7c0.4,0.5,0.6,1.2,0.6,2.1v0.4h-3.9c0,0.6,0.2,1,0.5,1.4c0.3,0.3,0.7,0.5,1.2,0.5
			c0.3,0,0.6-0.1,0.9-0.2s0.5-0.3,0.6-0.6l0.6,0.5C100.9,41.5,100.1,41.9,99.2,41.9z M99.1,36.7c-0.4,0-0.7,0.1-1,0.4
			c-0.3,0.3-0.4,0.7-0.5,1.2h2.9v-0.1c0-0.5-0.2-0.9-0.4-1.2S99.5,36.7,99.1,36.7z M99.5,33.6h1.2l-1.4,1.6l-0.8,0L99.5,33.6z"/>
		<path class="st3" d="M103.1,38.9c0-0.9,0.2-1.6,0.6-2.1c0.4-0.5,1-0.8,1.6-0.8c0.7,0,1.2,0.2,1.6,0.7v-3h1v8.2H107l0-0.6
			c-0.4,0.5-0.9,0.7-1.6,0.7c-0.7,0-1.2-0.3-1.6-0.8C103.3,40.5,103.1,39.8,103.1,38.9L103.1,38.9z M104.1,39c0,0.7,0.1,1.2,0.4,1.5
			c0.3,0.4,0.6,0.6,1.1,0.6c0.6,0,1.1-0.3,1.4-0.8v-2.6c-0.3-0.5-0.7-0.8-1.4-0.8c-0.5,0-0.9,0.2-1.1,0.6
			C104.2,37.7,104.1,38.3,104.1,39z"/>
		<path class="st3" d="M110.2,34.5c0-0.2,0-0.3,0.1-0.4c0.1-0.1,0.2-0.2,0.4-0.2s0.3,0.1,0.4,0.2c0.1,0.1,0.1,0.2,0.1,0.4
			c0,0.2,0,0.3-0.1,0.4s-0.2,0.2-0.4,0.2s-0.3-0.1-0.4-0.2S110.2,34.7,110.2,34.5z M111.3,41.8h-1V36h1V41.8z"/>
		<path class="st3" d="M115,34.7V36h1.1v0.8H115v3.6c0,0.2,0,0.4,0.1,0.5s0.3,0.2,0.5,0.2c0.1,0,0.3,0,0.5-0.1v0.8
			c-0.3,0.1-0.5,0.1-0.8,0.1c-0.4,0-0.8-0.1-1-0.4c-0.2-0.3-0.3-0.6-0.3-1.1v-3.6h-1V36h1v-1.4H115z"/>
		<path class="st3" d="M118,34.5c0-0.2,0-0.3,0.1-0.4c0.1-0.1,0.2-0.2,0.4-0.2s0.3,0.1,0.4,0.2c0.1,0.1,0.1,0.2,0.1,0.4
			c0,0.2,0,0.3-0.1,0.4s-0.2,0.2-0.4,0.2s-0.3-0.1-0.4-0.2S118,34.7,118,34.5z M119,41.8h-1V36h1V41.8z"/>
		<path class="st3" d="M121.1,38.9c0-0.6,0.1-1.1,0.3-1.5c0.2-0.5,0.5-0.8,0.9-1c0.4-0.2,0.8-0.4,1.4-0.4c0.8,0,1.4,0.3,1.9,0.8
			c0.5,0.5,0.7,1.3,0.7,2.2V39c0,0.6-0.1,1.1-0.3,1.5c-0.2,0.4-0.5,0.8-0.9,1s-0.9,0.4-1.4,0.4c-0.8,0-1.4-0.3-1.9-0.8
			C121.3,40.5,121.1,39.8,121.1,38.9L121.1,38.9z M122.1,39c0,0.6,0.1,1.1,0.4,1.5c0.3,0.4,0.7,0.6,1.2,0.6c0.5,0,0.9-0.2,1.2-0.6
			s0.4-0.9,0.4-1.6c0-0.6-0.2-1.1-0.4-1.5c-0.3-0.4-0.7-0.6-1.2-0.6c-0.5,0-0.9,0.2-1.2,0.6C122.2,37.7,122.1,38.3,122.1,39z"/>
		<path class="st3" d="M129.3,36l0,0.7c0.4-0.6,1-0.8,1.7-0.8c1.2,0,1.8,0.7,1.8,2.1v3.8h-1V38c0-0.4-0.1-0.7-0.3-0.9
			c-0.2-0.2-0.5-0.3-0.9-0.3c-0.3,0-0.6,0.1-0.8,0.3c-0.2,0.2-0.4,0.4-0.6,0.7v4.1h-1V36H129.3z"/>
		<path class="st3" d="M138.4,40.3c0-0.3-0.1-0.5-0.3-0.6c-0.2-0.1-0.5-0.3-1-0.4c-0.5-0.1-0.9-0.2-1.2-0.4
			c-0.3-0.1-0.5-0.3-0.6-0.5c-0.1-0.2-0.2-0.4-0.2-0.7c0-0.5,0.2-0.9,0.6-1.2c0.4-0.3,0.9-0.5,1.5-0.5c0.7,0,1.2,0.2,1.6,0.5
			c0.4,0.3,0.6,0.8,0.6,1.3h-1c0-0.3-0.1-0.5-0.3-0.7c-0.2-0.2-0.5-0.3-0.9-0.3c-0.4,0-0.6,0.1-0.8,0.2c-0.2,0.2-0.3,0.4-0.3,0.6
			c0,0.2,0.1,0.4,0.3,0.5c0.2,0.1,0.5,0.2,1,0.3c0.5,0.1,0.9,0.2,1.2,0.4s0.5,0.3,0.7,0.5c0.1,0.2,0.2,0.5,0.2,0.8
			c0,0.5-0.2,0.9-0.6,1.2c-0.4,0.3-0.9,0.5-1.6,0.5c-0.5,0-0.9-0.1-1.2-0.2c-0.4-0.2-0.6-0.4-0.8-0.7s-0.3-0.6-0.3-0.9h1
			c0,0.3,0.1,0.6,0.4,0.8c0.2,0.2,0.6,0.3,1,0.3c0.4,0,0.7-0.1,0.9-0.2C138.3,40.7,138.4,40.5,138.4,40.3z"/>
	</g>
	<g>
		<path class="st4" d="M11.8,22.7l-0.9,4.6c-0.4,1.9-0.6,3.3-0.6,4.1c0,1.6,1.6,2.4,4.7,2.4c3.1,0,5.8-0.5,8.1-1.6
			c-0.5,1.8-1.4,2.9-2.7,3.3c-0.8,0.3-2.1,0.5-4,0.8c-1.9,0.3-3.3,0.4-4.3,0.4c-3.9,0-5.9-1.3-5.9-3.9c0-0.7,0.2-2,0.6-4L8,22.7H7.8
			c-1.2,0-2.4,0.3-3.5,0.8c0.7-1.3,1.2-2.1,1.6-2.5c0.4-0.4,1.1-0.5,2-0.5h0.6l1.8-8.9H9.7c-2.2,0-4.3,0.7-6.2,2.1
			C4.1,11.7,5,10.5,6,9.9c0.8-0.4,3.3-0.6,7.6-0.6H19c3.4,0,6.2-0.3,8.3-1c-1,1.5-1.8,2.4-2.5,2.7c-0.7,0.3-2.3,0.5-4.8,0.5h-5.8
			l-1.8,8.9H16c2.6,0,4.7-0.3,6.2-1c-0.8,1.5-1.5,2.5-2.2,2.8c-0.6,0.3-2.1,0.5-4.5,0.5H11.8z"/>
	</g>
</g>
<g>
</g>
<g>
</g>
<g>
</g>
<g>
</g>
<g>
</g>
<g>
</g>
<g>
</g>
<g>
</g>
<g>
</g>
<g>
</g>
<g>
</g>
<g>
</g>
<g>
</g>
<g>
</g>
<g>
</g>
</svg>
